<svg width="128" height="128" viewBox="0 0 128 128" fill="none" xmlns="http://www.w3.org/2000/svg">
<g clip-path="url(#clip0_634_1595)">
<mask id="mask0_634_1595" style="mask-type:alpha" maskUnits="userSpaceOnUse" x="0" y="0" width="128" height="128">
<circle cx="64" cy="64" r="64" fill="black"/>
</mask>
<g mask="url(#mask0_634_1595)">
<rect width="128" height="128" fill="#EF4444"/>
<path opacity="0.9" d="M102.327 61.6097L100.926 80.7469H50L50.2897 61.6097H102.327ZM66.2963 128V54.2254C66.2963 48.311 66.2346 41.4938 68.3333 37.6027C70.4321 33.7117 74.6914 27.2058 78.5185 25.2758C82.3457 23.3458 86.6667 23.2214 86.6667 23.2214C86.6667 23.2214 93.7963 22.7233 96.8519 23.2214C100.019 23.273 103.588 24.5209 105 25.2758L102.963 41.7117C102.037 41.4315 98.0864 41.8673 96.8519 41.7117C95.6173 41.5249 91.6667 41.7117 90.7407 41.7117C88.3333 41.7117 87.5 44.7934 86.6667 45.8207C85.8333 46.8479 86.111 51.4238 86.111 53.1048V128H66.2963Z" fill="#FAFAFA"/>
</g>
</g>
<defs>
<clipPath id="clip0_634_1595">
<rect width="128" height="128" rx="4" fill="white"/>
</clipPath>
</defs>
</svg>
