<svg width="128" height="128" viewBox="0 0 128 128" fill="none" xmlns="http://www.w3.org/2000/svg">
<rect width="128" height="128" rx="64" fill="#EF4444"/>
<path d="M93 39.5C93 43.0897 90.0897 46 86.5 46C82.9103 46 80 43.0897 80 39.5C80 35.9101 82.9103 33 86.5 33C90.0897 33 93 35.9101 93 39.5Z" fill="white"/>
<path fill-rule="evenodd" clip-rule="evenodd" d="M62.5 84C74.374 84 84 74.374 84 62.5C84 50.626 74.374 41 62.5 41C50.626 41 41 50.626 41 62.5C41 74.374 50.626 84 62.5 84ZM62.5 75.4C69.6247 75.4 75.4 69.6247 75.4 62.5C75.4 55.3753 69.6247 49.6 62.5 49.6C55.3753 49.6 49.6 55.3753 49.6 62.5C49.6 69.6247 55.3753 75.4 62.5 75.4Z" fill="white"/>
<path fill-rule="evenodd" clip-rule="evenodd" d="M20 61.28C20 46.8307 20 39.6059 22.812 34.0871C25.2856 29.2324 29.2324 25.2856 34.0871 22.812C39.6059 20 46.8307 20 61.28 20H64.72C79.1693 20 86.3942 20 91.9128 22.812C96.7675 25.2856 100.714 29.2324 103.188 34.0871C106 39.6059 106 46.8307 106 61.28V64.72C106 79.1693 106 86.3942 103.188 91.9128C100.714 96.7675 96.7675 100.714 91.9128 103.188C86.3942 106 79.1693 106 64.72 106H61.28C46.8307 106 39.6059 106 34.0871 103.188C29.2324 100.714 25.2856 96.7675 22.812 91.9128C20 86.3942 20 79.1693 20 64.72V61.28ZM61.28 28.6H64.72C72.0868 28.6 77.0941 28.6067 80.965 28.9229C84.7356 29.231 86.6638 29.7893 88.0088 30.4747C91.245 32.1237 93.8761 34.755 95.5252 37.9912C96.2106 39.3362 96.7692 41.2644 97.0771 45.035C97.3931 48.9059 97.4 53.9132 97.4 61.28V64.72C97.4 72.0868 97.3931 77.0941 97.0771 80.965C96.7692 84.7356 96.2106 86.6638 95.5252 88.0088C93.8761 91.245 91.245 93.8761 88.0088 95.5252C86.6638 96.2106 84.7356 96.7692 80.965 97.0771C77.0941 97.3931 72.0868 97.4 64.72 97.4H61.28C53.9132 97.4 48.9059 97.3931 45.035 97.0771C41.2644 96.7692 39.3362 96.2106 37.9912 95.5252C34.755 93.8761 32.1237 91.245 30.4747 88.0088C29.7893 86.6638 29.231 84.7356 28.9229 80.965C28.6067 77.0941 28.6 72.0868 28.6 64.72V61.28C28.6 53.9132 28.6067 48.9059 28.9229 45.035C29.231 41.2644 29.7893 39.3362 30.4747 37.9912C32.1237 34.755 34.755 32.1237 37.9912 30.4747C39.3362 29.7893 41.2644 29.231 45.035 28.9229C48.9059 28.6067 53.9132 28.6 61.28 28.6Z" fill="white"/>
</svg>
