<svg width="128" height="128" viewBox="0 0 128 128" fill="none" xmlns="http://www.w3.org/2000/svg">
<rect width="128" height="128" rx="64" fill="#EF4444"/>
<path d="M73.3931 69.5393C72.8139 68.9767 72.1938 68.6338 71.3691 69.3899L68.0703 72.4141C67.3275 72.7306 66.8459 72.8684 66.0463 72.2647C63.0686 69.8911 58.8097 67.0515 56.0711 59.7197C56.0145 58.7995 56.537 58.442 57.0595 58.0845L59.6155 55.3767C60.138 55.0192 59.9995 54.5386 59.861 54.058L58.4036 47.1921C58.0699 45.3108 57.368 45.4075 56.7069 45.2844L54.9442 44.9562C54.5035 44.8742 53.5812 44.9298 52.5362 45.6449C46.7885 49.5776 47.503 56.76 50.2101 61.812C50.7074 62.8142 53.6411 71.5469 62.3383 77.4867C68.8164 81.8764 70.4406 81.724 72.5055 81.6537C74.9702 81.8852 77.7622 80.3584 79.2322 78.5855C79.5753 77.9672 81.2089 75.3151 80.4094 74.7115" fill="#FAFAFA"/>
<path fill-rule="evenodd" clip-rule="evenodd" d="M64 94C80.5686 94 94 80.5685 94 64C94 47.4315 80.5686 34 64 34C47.4315 34 34 47.4315 34 64C34 69.4743 35.4608 74.5892 38.0098 78.9956C39.2524 81.1437 39.004 83.3724 38.8892 84.2168C38.7341 85.3565 38.4101 86.4927 38.0965 87.4485C37.5719 89.047 36.827 90.8665 36.1444 92.5075C36.2096 92.4841 36.2753 92.4605 36.3413 92.4369C38.2438 91.7541 40.4288 90.97 42.3422 90.4541C43.409 90.1664 44.6446 89.8896 45.8757 89.7929C46.7959 89.7206 48.4907 89.6726 50.2307 90.4196C51.8156 90.953 53.1435 91.4366 54.3158 91.8636C58.0295 93.216 60.1822 94 64 94ZM48 96C49.3485 96.4495 50.5763 96.899 51.742 97.3258C55.7634 98.798 59.0468 100 64 100C83.8823 100 100 83.8823 100 64C100 44.1177 83.8823 28 64 28C44.1178 28 28 44.1177 28 64C28 70.5572 29.7531 76.7049 32.8162 82C33.5167 83.211 31.9519 86.9679 30.3715 90.7625C28.6804 94.8227 26.9713 98.9261 28 100C29.2845 101.341 33.8407 99.7075 38.342 98.0937C42.4496 96.621 46.5115 95.1647 48 96Z" fill="#FAFAFA"/>
</svg>
