<svg width="128" height="128" viewBox="0 0 128 128" fill="none" xmlns="http://www.w3.org/2000/svg">
<rect width="128" height="128" rx="64" fill="#EF4444"/>
<path fill-rule="evenodd" clip-rule="evenodd" d="M103.202 40.5937C104.569 41.924 105.553 43.5797 106.058 45.3957C108.965 56.7857 108.293 74.7747 106.115 86.6043C105.61 88.4203 104.625 90.076 103.259 91.4063C101.892 92.7367 100.192 93.6953 98.3262 94.1867C91.4973 96 64.012 96 64.012 96C64.012 96 36.5268 96 29.6978 94.1867C27.8325 93.6953 26.1319 92.7367 24.7654 91.4063C23.3989 90.076 22.4142 88.4203 21.9095 86.6043C18.9859 75.2637 19.7874 57.2637 21.853 45.4507C22.3577 43.6343 23.3424 41.9787 24.7089 40.6483C26.0754 39.318 27.776 38.3597 29.6414 37.868C36.4703 36.055 63.9555 36 63.9555 36C63.9555 36 91.4408 36 98.2697 37.8133C100.135 38.3047 101.836 39.2633 103.202 40.5937ZM78.0085 66L55.2078 78.857V53.1427L78.0085 66Z" fill="white"/>
</svg>
